<svg width="24" height="24" viewBox="0 0 24 24" fill="none" xmlns="http://www.w3.org/2000/svg">
<g clip-path="url(#clip0_25_27)">
<path d="M15.8994 2.30566C15.939 2.32126 15.9785 2.33687 16.0193 2.35295C16.3613 2.49372 16.3613 2.49372 16.4531 2.62499C16.5374 2.95148 16.4623 3.14942 16.32 3.44677C16.3012 3.48786 16.2824 3.52895 16.263 3.57128C16.2032 3.70157 16.1422 3.83124 16.081 3.96093C16.0401 4.04952 15.9992 4.13814 15.9585 4.2268C15.8587 4.44331 15.7578 4.65928 15.6562 4.87499C15.6925 4.8892 15.7287 4.90341 15.766 4.91805C16.2027 5.09567 16.5783 5.38143 16.9485 5.66773C16.994 5.70286 16.994 5.70286 17.0405 5.7387C17.0808 5.77018 17.0808 5.77018 17.1219 5.8023C17.2079 5.86275 17.2956 5.90841 17.3906 5.95312C17.437 5.89124 17.4834 5.82937 17.5312 5.76562C17.2626 5.51121 16.9803 5.2915 16.6734 5.08605C16.3998 4.89834 16.3998 4.89834 16.3594 4.73437C16.3669 4.44994 16.4713 4.26722 16.623 4.0371C16.6441 4.00441 16.6651 3.97172 16.6868 3.93803C17.1164 3.27775 17.1164 3.27775 17.2969 3.18749C17.7453 3.14741 18.106 3.51311 18.4347 3.78332C18.498 3.83643 18.498 3.83643 18.5625 3.89062C18.6001 3.92191 18.6001 3.92191 18.6385 3.95384C19.1556 4.38449 19.6405 4.83091 20.0586 5.36132C20.122 5.44122 20.1875 5.51951 20.2553 5.5957C20.4357 5.80388 20.5209 5.94928 20.5188 6.22778C20.4211 6.51256 20.085 6.68875 19.8486 6.85546C19.7733 6.90906 19.6981 6.96271 19.6229 7.01641C19.5861 7.04263 19.5494 7.06885 19.5115 7.09586C19.32 7.23414 19.1331 7.37836 18.9463 7.52288C18.8437 7.59374 18.8437 7.59374 18.75 7.59374C18.7637 7.61723 18.7773 7.64073 18.7914 7.66493C19.1285 8.24929 19.4058 8.8364 19.6406 9.46874C19.7334 9.43781 19.8262 9.40687 19.9219 9.37499C19.8625 9.22452 19.8029 9.07416 19.7432 8.92382C19.7265 8.88146 19.7097 8.83911 19.6925 8.79547C19.6221 8.61845 19.551 8.44577 19.4658 8.27526C19.3908 8.1253 19.3786 8.04066 19.4062 7.87499C19.6008 7.57096 19.8823 7.4492 20.2002 7.29492C20.2504 7.26936 20.3007 7.2438 20.3524 7.21746C20.7772 7.00759 20.7772 7.00759 21.0469 7.03124C21.2688 7.16034 21.3614 7.34287 21.4629 7.57031C21.4788 7.60512 21.4946 7.63993 21.511 7.6758C21.883 8.51065 22.1482 9.39463 22.3037 10.2949C22.3095 10.3282 22.3153 10.3615 22.3213 10.3957C22.4152 10.9844 22.4152 10.9844 22.2978 11.2471C21.961 11.5056 21.3709 11.4728 20.9619 11.5137C20.8717 11.5231 20.8717 11.5231 20.7796 11.5327C20.5236 11.5588 20.2732 11.5818 20.0156 11.5781C20.0164 11.6037 20.0171 11.6293 20.0179 11.6557C20.0348 12.3454 19.9815 13.0062 19.875 13.6875C19.9833 13.703 20.0916 13.7184 20.2031 13.7344C20.2179 13.6143 20.2326 13.4942 20.2471 13.374C20.2515 13.338 20.2559 13.302 20.2605 13.2648C20.2926 12.9955 20.3107 12.7275 20.3185 12.4563C20.3506 12.2935 20.4183 12.213 20.5312 12.0937C20.6756 12.0216 20.827 12.04 20.9853 12.041C21.0384 12.0414 21.0384 12.0414 21.0925 12.0417C21.2023 12.0428 21.3121 12.0447 21.4219 12.0469C21.4557 12.0475 21.4896 12.048 21.5244 12.0487C21.6192 12.0508 21.7139 12.0547 21.8086 12.0586C21.8639 12.0608 21.9193 12.0629 21.9763 12.0652C22.1524 12.099 22.2334 12.1553 22.3594 12.2812C22.7005 13.3047 22.0522 14.9157 21.6943 15.873C21.6709 15.936 21.6709 15.936 21.647 16.0002C21.632 16.0391 21.617 16.078 21.6015 16.118C21.5817 16.1694 21.5817 16.1694 21.5615 16.2218C21.507 16.3296 21.4753 16.3838 21.375 16.4531C21.0485 16.5374 20.8506 16.4623 20.5532 16.32C20.5121 16.3012 20.471 16.2824 20.4287 16.263C20.2984 16.2032 20.1688 16.1422 20.0391 16.081C19.9505 16.0401 19.8618 15.9992 19.7732 15.9585C19.5567 15.8587 19.3407 15.7578 19.125 15.6562C19.1108 15.6925 19.0966 15.7287 19.0819 15.766C18.9043 16.2027 18.6186 16.5783 18.3323 16.9485C18.3088 16.9789 18.2854 17.0092 18.2613 17.0405C18.2298 17.0808 18.2298 17.0808 18.1977 17.1219C18.1372 17.2079 18.0916 17.2956 18.0469 17.3906C18.1397 17.4602 18.1397 17.4602 18.2344 17.5312C18.4888 17.2626 18.7085 16.9803 18.9139 16.6734C19.1016 16.3998 19.1016 16.3998 19.2656 16.3594C19.55 16.3669 19.7328 16.4713 19.9629 16.623C19.9956 16.6441 20.0283 16.6651 20.062 16.6868C20.7222 17.1164 20.7222 17.1164 20.8125 17.2969C20.8526 17.7453 20.4869 18.106 20.2167 18.4347C20.1813 18.4769 20.1459 18.519 20.1094 18.5625C20.0885 18.5876 20.0676 18.6127 20.0462 18.6385C19.6155 19.1556 19.1691 19.6405 18.6387 20.0586C18.5588 20.122 18.4805 20.1875 18.4043 20.2553C18.1961 20.4357 18.0507 20.5209 17.7722 20.5188C17.4874 20.4211 17.3112 20.085 17.1445 19.8486C17.0909 19.7733 17.0373 19.6981 16.9836 19.6229C16.9574 19.5861 16.9311 19.5494 16.9041 19.5115C16.7658 19.32 16.6216 19.1331 16.4771 18.9463C16.4062 18.8437 16.4062 18.8437 16.4062 18.75C16.3703 18.7708 16.3703 18.7708 16.3336 18.7921C15.8988 19.0423 15.466 19.2814 14.9971 19.4619C14.944 19.4824 14.944 19.4824 14.8899 19.5032C14.7488 19.5555 14.636 19.5937 14.4844 19.5937C14.5308 19.702 14.5772 19.8103 14.625 19.9219C14.7755 19.8625 14.9258 19.8029 15.0762 19.7432C15.1185 19.7265 15.1609 19.7097 15.2045 19.6925C15.3815 19.6221 15.5542 19.551 15.7247 19.4658C15.8747 19.3908 15.9593 19.3786 16.125 19.4062C16.429 19.6008 16.5508 19.8823 16.7051 20.2002C16.7306 20.2504 16.7562 20.3007 16.7825 20.3524C16.9922 20.7767 16.9922 20.7767 16.9687 21.0469C16.8336 21.2841 16.6338 21.3742 16.3945 21.4834C16.3557 21.5014 16.3168 21.5193 16.2767 21.5378C15.3123 21.9707 13.9714 22.4955 12.8906 22.3594C12.7529 22.2978 12.7529 22.2978 12.6562 22.1719C12.5503 21.7807 12.5265 21.3638 12.4863 20.9619C12.4769 20.8717 12.4769 20.8717 12.4673 20.7796C12.4412 20.5236 12.4182 20.2732 12.4219 20.0156C12.3963 20.0164 12.3707 20.0171 12.3443 20.0179C11.6546 20.0348 10.9938 19.9815 10.3125 19.875C10.297 19.9833 10.2816 20.0916 10.2656 20.2031C10.3857 20.2179 10.5058 20.2326 10.626 20.2471C10.662 20.2515 10.6981 20.256 10.7353 20.2606C11.0032 20.2927 11.2691 20.3093 11.5391 20.3139C11.7197 20.3545 11.8467 20.4276 11.9531 20.5781C11.9882 20.7194 11.982 20.8525 11.9736 20.9971C11.9723 21.0363 11.9711 21.0756 11.9697 21.116C11.9668 21.1957 11.9633 21.2754 11.959 21.3551C11.9537 21.4584 11.9505 21.5614 11.9482 21.6649C11.9294 22.1449 11.9294 22.1449 11.7187 22.3594C10.6953 22.7005 9.08429 22.0522 8.12695 21.6943C8.06399 21.6709 8.06399 21.6709 7.99976 21.647C7.96088 21.632 7.92201 21.617 7.88195 21.6015C7.8306 21.5817 7.8306 21.5817 7.7782 21.5615C7.67039 21.507 7.61622 21.4753 7.54687 21.375C7.46654 21.0565 7.53026 20.8669 7.66973 20.577C7.68749 20.5382 7.70524 20.4995 7.72353 20.4595C7.78002 20.3365 7.83771 20.2142 7.8955 20.0918C7.95287 19.9683 8.00999 19.8447 8.06697 19.7211C8.10242 19.6444 8.13815 19.5678 8.17417 19.4913C8.26427 19.3157 8.26427 19.3157 8.29687 19.125C8.24926 19.0994 8.20164 19.0739 8.15258 19.0475C7.62737 18.7614 7.15725 18.4379 6.70312 18.0469C6.64124 18.0778 6.57937 18.1087 6.51562 18.1406C6.5004 18.2786 6.5004 18.2786 6.57458 18.3503C6.81367 18.5539 7.0637 18.7366 7.32424 18.9116C7.60048 19.1018 7.60048 19.1018 7.64062 19.2656C7.63312 19.55 7.52871 19.7328 7.37695 19.9629C7.35592 19.9956 7.33489 20.0283 7.31323 20.062C6.88362 20.7222 6.88362 20.7222 6.70312 20.8125C6.25472 20.8526 5.89394 20.4869 5.5653 20.2167C5.52313 20.1813 5.48095 20.1459 5.43749 20.1094C5.4124 20.0885 5.38731 20.0676 5.36146 20.0462C4.84438 19.6155 4.35949 19.1691 3.94134 18.6387C3.87797 18.5588 3.81248 18.4805 3.74468 18.4043C3.56433 18.1961 3.47913 18.0507 3.4812 17.7722C3.57889 17.4874 3.91498 17.3112 4.15136 17.1445C4.22665 17.0909 4.30191 17.0373 4.37713 16.9836C4.41388 16.9574 4.45062 16.9311 4.48848 16.9041C4.67998 16.7658 4.86689 16.6216 5.05371 16.4771C5.15624 16.4062 5.15624 16.4062 5.24999 16.4062C5.23634 16.3828 5.22268 16.3593 5.20861 16.3351C4.87151 15.7507 4.59415 15.1636 4.35937 14.5312C4.26656 14.5622 4.17374 14.5931 4.07812 14.625C4.13749 14.7755 4.19713 14.9258 4.25683 15.0762C4.27354 15.1185 4.29025 15.1609 4.30746 15.2045C4.37788 15.3815 4.44898 15.5542 4.53424 15.7247C4.60922 15.8747 4.62135 15.9593 4.59374 16.125C4.39914 16.429 4.11771 16.5508 3.7998 16.7051C3.72443 16.7434 3.72443 16.7434 3.64755 16.7825C3.22337 16.9921 3.22337 16.9921 2.95312 16.9687C2.71299 16.8328 2.62358 16.6275 2.51367 16.3857C2.49558 16.3466 2.4775 16.3074 2.45887 16.2671C2.0398 15.3356 1.48031 13.9283 1.64062 12.8906C1.69921 12.7529 1.69921 12.7529 1.82812 12.6562C2.23041 12.5582 2.65344 12.5293 3.06445 12.4863C3.12215 12.48 3.17986 12.4738 3.23931 12.4673C3.48919 12.4407 3.73284 12.4183 3.98437 12.4219C3.98363 12.3946 3.9829 12.3674 3.98214 12.3393C3.96616 11.6502 4.01184 10.9923 4.12499 10.3125C4.01671 10.297 3.90843 10.2816 3.79687 10.2656C3.78205 10.3857 3.76744 10.5058 3.75292 10.626C3.74625 10.6801 3.74625 10.6801 3.73943 10.7353C3.70731 11.0032 3.69069 11.2691 3.68609 11.5391C3.6427 11.7321 3.5688 11.8218 3.42187 11.9531C3.27704 11.9762 3.1723 11.9824 3.02929 11.9736C2.99236 11.9723 2.95543 11.9711 2.91738 11.9697C2.84137 11.9668 2.76538 11.9633 2.68942 11.959C2.58446 11.9535 2.47977 11.9504 2.37469 11.9482C1.8514 11.9291 1.8514 11.9291 1.64062 11.7187C1.30302 10.7059 1.93366 9.043 2.30566 8.10058C2.32126 8.06102 2.33687 8.02146 2.35295 7.9807C2.49372 7.63871 2.49372 7.63871 2.62499 7.54687C2.95148 7.46256 3.14942 7.53771 3.44677 7.67999C3.48786 7.69878 3.52895 7.71758 3.57128 7.73694C3.70157 7.79677 3.83124 7.85783 3.96093 7.91894C4.04952 7.95989 4.13814 8.00075 4.2268 8.04153C4.44331 8.14133 4.65928 8.24223 4.87499 8.34374C4.88896 8.30803 4.90292 8.27232 4.9173 8.23552C5.10153 7.78375 5.37886 7.388 5.68678 7.0134C5.79279 6.88428 5.88755 6.76387 5.95312 6.60937C5.89124 6.56296 5.82937 6.51656 5.76562 6.46874C5.51121 6.73737 5.2915 7.01969 5.08605 7.32662C4.89834 7.60022 4.89834 7.60022 4.73437 7.64062C4.44994 7.63312 4.26722 7.52871 4.0371 7.37695C3.98806 7.34541 3.98806 7.34541 3.93803 7.31323C3.27775 6.88362 3.27775 6.88362 3.18749 6.70312C3.14419 6.19201 3.64577 5.71393 3.95752 5.33692C4.36885 4.85191 4.81645 4.40076 5.29687 3.98437C5.32294 3.96142 5.349 3.93846 5.37586 3.91481C5.89861 3.45986 5.89861 3.45986 6.23437 3.47625C6.51391 3.59364 6.68646 3.91173 6.85546 4.15136C6.90906 4.22665 6.96271 4.30191 7.01641 4.37713C7.05574 4.43225 7.05574 4.43225 7.09586 4.48848C7.23414 4.67998 7.37836 4.86689 7.52288 5.05371C7.59374 5.15624 7.59374 5.15624 7.59374 5.24999C7.61723 5.23634 7.64073 5.22268 7.66493 5.20861C8.24929 4.87151 8.8364 4.59415 9.46874 4.35937C9.42234 4.22015 9.42234 4.22015 9.37499 4.07812C9.22452 4.13749 9.07416 4.19713 8.92382 4.25683C8.88146 4.27354 8.83911 4.29025 8.79547 4.30746C8.61845 4.37788 8.44577 4.44898 8.27526 4.53424C8.1253 4.60922 8.04066 4.62135 7.87499 4.59374C7.57096 4.39914 7.4492 4.11771 7.29492 3.7998C7.26936 3.74956 7.2438 3.69931 7.21746 3.64755C7.00781 3.22326 7.00781 3.22326 7.03124 2.95312C7.16642 2.71584 7.36618 2.62581 7.60546 2.5166C7.66377 2.48965 7.66377 2.48965 7.72325 2.46217C8.6877 2.02929 10.0286 1.50449 11.1094 1.64062C11.2471 1.70214 11.2471 1.70214 11.3437 1.82812C11.4497 2.21932 11.4735 2.63621 11.5137 3.03808C11.5231 3.12831 11.5231 3.12831 11.5327 3.22036C11.5588 3.47639 11.5818 3.72678 11.5781 3.98437C11.6037 3.98363 11.6293 3.9829 11.6557 3.98214C12.3454 3.96515 13.0062 4.01852 13.6875 4.12499C13.703 4.01671 13.7184 3.90843 13.7344 3.79687C13.6143 3.78205 13.4942 3.76744 13.374 3.75292C13.3199 3.74625 13.3199 3.74625 13.2647 3.73943C12.9968 3.70731 12.7308 3.69069 12.4609 3.68609C12.2803 3.6455 12.1533 3.57236 12.0469 3.42187C12.0118 3.28059 12.018 3.14752 12.0264 3.00292C12.0276 2.96367 12.0289 2.92442 12.0303 2.88397C12.0331 2.80427 12.0367 2.72458 12.0409 2.64493C12.0463 2.54162 12.0495 2.43855 12.0518 2.33514C12.0706 1.8551 12.0706 1.8551 12.2812 1.64062C13.294 1.30302 14.957 1.93366 15.8994 2.30566ZM12.9375 2.48437C12.922 2.59265 12.9066 2.70093 12.8906 2.81249C12.9355 2.82047 12.9804 2.82845 13.0267 2.83666C13.3773 2.9 13.7266 2.96852 14.0742 3.04687C14.1077 3.05408 14.1412 3.06128 14.1756 3.0687C14.5012 3.14401 14.5012 3.14401 14.625 3.28124C14.7068 3.60776 14.6068 3.88387 14.5225 4.20117C14.5082 4.25869 14.4939 4.31622 14.4792 4.37548C14.4575 4.45833 14.4575 4.45833 14.4355 4.54284C14.4224 4.59309 14.4094 4.64334 14.3959 4.69512C14.3371 4.84508 14.2837 4.91775 14.1562 5.01562C13.991 5.06934 13.8654 5.06266 13.6968 5.0277C13.6549 5.01931 13.6129 5.01091 13.5697 5.00225C13.5264 4.99313 13.4831 4.984 13.4385 4.9746C13.3527 4.95703 13.267 4.93958 13.1812 4.92224C13.1434 4.91433 13.1056 4.90642 13.0667 4.89827C12.7748 4.84569 12.5026 4.82311 12.206 4.83178C12.1399 4.83306 12.0738 4.83428 12.0078 4.83544C11.9053 4.83748 11.8029 4.83986 11.7004 4.84323C11.6004 4.84635 11.5004 4.84798 11.4003 4.84936C11.3411 4.85089 11.2819 4.85241 11.2208 4.85398C11.0625 4.82812 11.0625 4.82812 10.9288 4.73923C10.7892 4.53745 10.7754 4.3604 10.754 4.11968C10.7491 4.07424 10.7442 4.02879 10.7392 3.98196C10.7239 3.83734 10.7101 3.69262 10.6963 3.54785C10.6862 3.44954 10.6759 3.35124 10.6656 3.25295C10.6406 3.01248 10.6168 2.77191 10.5937 2.53124C10.1767 2.58225 9.77995 2.65535 9.37792 2.77734C9.32982 2.7917 9.28172 2.80607 9.23216 2.82087C8.65652 2.9915 8.65652 2.9915 8.10937 3.23437C8.04688 3.36993 8.04688 3.36993 8.10644 3.47753C8.12288 3.50557 8.13931 3.53361 8.15624 3.56249C8.39059 3.53288 8.59163 3.4639 8.80957 3.37792C9.1694 3.23721 9.49891 3.10851 9.89062 3.14062C10.0236 3.21353 10.0705 3.26302 10.1295 3.40388C10.1423 3.45211 10.1551 3.50035 10.1682 3.55004C10.1824 3.6031 10.1966 3.65615 10.2112 3.71081C10.2324 3.79401 10.2324 3.79401 10.2539 3.8789C10.2761 3.96102 10.2761 3.96102 10.2988 4.04479C10.4393 4.58122 10.4393 4.58122 10.4062 4.82812C10.3119 4.98454 10.2371 5.04195 10.0629 5.09252C10.0028 5.11091 10.0028 5.11091 9.94136 5.12967C9.89851 5.14231 9.85567 5.15494 9.81152 5.16796C9.04331 5.40976 8.35647 5.78839 7.68749 6.23437C7.52682 6.24463 7.36846 6.25166 7.21874 6.18749C7.18646 6.12552 7.15537 6.06292 7.12499 5.99999C7.08372 5.9381 7.04108 5.87709 6.99737 5.81689C6.97231 5.78226 6.94726 5.74763 6.92144 5.71196C6.89483 5.67553 6.86823 5.63909 6.84081 5.60156C6.81363 5.56419 6.78646 5.52682 6.75845 5.48832C6.67769 5.37749 6.59669 5.26684 6.51562 5.15624C6.49307 5.12536 6.47051 5.09448 6.44728 5.06265C6.38925 4.98332 6.33093 4.9042 6.27246 4.82519C6.23989 4.78114 6.20732 4.73709 6.17376 4.69171C6.10155 4.58964 6.10155 4.58964 5.99999 4.54687C5.30874 5.08297 4.71555 5.70071 4.21874 6.42187C4.36374 6.5614 4.36374 6.5614 4.54687 6.60937C4.61969 6.52102 4.68752 6.43222 4.75488 6.33984C4.92382 6.11603 5.09544 5.8954 5.27929 5.68359C5.31857 5.63742 5.35784 5.59126 5.39831 5.5437C5.5781 5.40006 5.67731 5.39154 5.90624 5.39062C6.00018 5.4331 6.00018 5.4331 6.07324 5.50781C6.10327 5.53784 6.1333 5.56787 6.16424 5.59881C6.20285 5.63839 6.24146 5.67797 6.28124 5.71874C6.34106 5.77406 6.40108 5.82915 6.46124 5.88409C6.52631 5.94511 6.59131 6.00621 6.65624 6.06738C6.6883 6.09644 6.72036 6.12551 6.75339 6.15545C6.90144 6.29886 7.00499 6.40374 7.01641 6.61596C6.9808 6.81703 6.93584 6.89637 6.7998 7.04589C6.76107 7.09012 6.72233 7.13435 6.68243 7.17993C6.64285 7.22367 6.60327 7.26742 6.56249 7.31249C5.78516 8.18888 5.78516 8.18889 5.39062 9.23437C5.04431 9.3498 4.78859 9.26623 4.47418 9.11553C4.43759 9.09878 4.40099 9.08202 4.36329 9.06475C4.24741 9.0116 4.13198 8.95754 4.0166 8.90332C3.90034 8.84901 3.784 8.79492 3.66739 8.74138C3.59507 8.70814 3.52297 8.67446 3.45109 8.64028C3.25551 8.54279 3.25551 8.54279 3.04687 8.57812C2.99385 8.69778 2.95151 8.8113 2.9121 8.93554C2.9001 8.97259 2.88809 9.00964 2.87572 9.04781C2.67335 9.69489 2.50047 10.3817 2.48437 11.0625C2.59265 11.078 2.70093 11.0934 2.81249 11.1094C2.82047 11.0645 2.82845 11.0196 2.83666 10.9733C2.9 10.6227 2.96852 10.2734 3.04687 9.92578C3.05408 9.8923 3.06128 9.85883 3.0687 9.82435C3.14401 9.49875 3.14401 9.49875 3.28124 9.37499C3.49502 9.32127 3.64833 9.33526 3.86022 9.39038C3.94325 9.41186 3.94325 9.41186 4.02795 9.43377C4.11369 9.45688 4.11369 9.45688 4.20117 9.48046C4.25869 9.49515 4.31622 9.50983 4.37548 9.52496C4.85886 9.65241 4.85886 9.65241 5.01562 9.79687C5.10388 10.0553 5.02968 10.3055 4.9746 10.5644C4.85523 11.144 4.82329 11.6821 4.83615 12.2727C4.83814 12.3695 4.83924 12.4662 4.8402 12.563C4.84124 12.6203 4.84227 12.6776 4.84334 12.7366C4.82579 12.9142 4.80998 12.994 4.68749 13.125C4.54965 13.177 4.4112 13.1988 4.26562 13.2187C4.23114 13.2236 4.19666 13.2285 4.16113 13.2335C4.05588 13.2469 3.95059 13.2582 3.84503 13.2689C3.78818 13.275 3.78818 13.275 3.73018 13.2811C3.61083 13.2938 3.49145 13.3061 3.37206 13.3184C3.29043 13.3269 3.20879 13.3355 3.12716 13.3442C2.92855 13.3651 2.72991 13.3858 2.53124 13.4062C2.58159 13.7598 2.63731 14.1072 2.73046 14.4521C2.74541 14.5082 2.74541 14.5082 2.76065 14.5653C2.89078 15.0387 3.05531 15.501 3.28124 15.9375C3.37406 15.9066 3.46687 15.8756 3.56249 15.8437C3.53288 15.6094 3.4639 15.4084 3.37792 15.1904C3.23721 14.8306 3.10851 14.5011 3.14062 14.1094C3.21353 13.9764 3.26302 13.9295 3.40388 13.8705C3.45211 13.8577 3.50035 13.8449 3.55004 13.8318C3.6031 13.8176 3.65615 13.8034 3.71081 13.7888C3.79401 13.7676 3.79401 13.7676 3.8789 13.7461C3.96102 13.7239 3.96102 13.7239 4.04479 13.7012C4.58122 13.5607 4.58122 13.5607 4.82812 13.5937C4.98454 13.6881 5.04195 13.7629 5.09252 13.9371C5.10479 13.9772 5.11705 14.0173 5.12968 14.0586C5.14232 14.1015 5.15495 14.1443 5.16796 14.1885C5.40005 14.9265 5.75861 15.5548 6.17394 16.2034C6.25166 16.3437 6.25121 16.4354 6.23437 16.5937C6.17549 16.7407 6.11397 16.8147 5.98351 16.9028C5.95167 16.9247 5.91983 16.9466 5.88702 16.9692C5.85276 16.9923 5.8185 17.0153 5.7832 17.0391C5.71123 17.0886 5.63934 17.1383 5.5675 17.1881C5.53063 17.2136 5.49375 17.2391 5.45576 17.2653C5.2753 17.3917 5.09831 17.5224 4.92187 17.6543C4.88963 17.6781 4.85738 17.702 4.82416 17.7265C4.66131 17.8415 4.66131 17.8415 4.54687 18C5.08297 18.6912 5.70071 19.2844 6.42187 19.7812C6.5614 19.6362 6.5614 19.6362 6.60937 19.4531C6.52102 19.3803 6.43222 19.3125 6.33984 19.2451C6.11603 19.0762 5.8954 18.9046 5.68359 18.7207C5.63742 18.6814 5.59126 18.6421 5.5437 18.6017C5.40006 18.4219 5.39154 18.3227 5.39062 18.0937C5.4331 17.9998 5.4331 17.9998 5.50781 17.9268C5.53784 17.8967 5.56787 17.8667 5.59881 17.8357C5.63839 17.7971 5.67797 17.7585 5.71874 17.7187C5.77406 17.6589 5.82915 17.5989 5.88409 17.5388C5.94511 17.4737 6.00621 17.4087 6.06738 17.3437C6.09644 17.3117 6.12551 17.2796 6.15545 17.2466C6.29949 17.0979 6.40363 16.9951 6.61688 16.9847C6.80901 17.0177 6.88749 17.0546 7.03124 17.1826C7.07112 17.2171 7.11101 17.2515 7.15209 17.287C7.22011 17.3491 7.28802 17.4113 7.35571 17.4737C7.75751 17.8395 8.23084 18.1074 8.70117 18.375C8.74862 18.4021 8.74862 18.4021 8.79702 18.4298C8.96466 18.5255 8.96466 18.5255 9.14765 18.5823C9.17627 18.5912 9.20488 18.6002 9.23437 18.6094C9.3498 18.9557 9.26623 19.2114 9.11553 19.5258C9.09878 19.5624 9.08202 19.599 9.06475 19.6367C9.0116 19.7526 8.95754 19.868 8.90332 19.9834C8.84901 20.0997 8.79492 20.216 8.74138 20.3326C8.70814 20.4049 8.67446 20.477 8.64028 20.5489C8.54279 20.7445 8.54279 20.7445 8.57812 20.9531C8.69778 21.0061 8.8113 21.0485 8.93554 21.0879C8.97259 21.0999 9.00964 21.1119 9.04781 21.1243C9.69489 21.3266 10.3817 21.4995 11.0625 21.5156C11.078 21.4073 11.0934 21.2991 11.1094 21.1875C11.0645 21.1795 11.0196 21.1715 10.9733 21.1633C10.6227 21.1 10.2734 21.0315 9.92578 20.9531C9.8923 20.9459 9.85883 20.9387 9.82435 20.9313C9.49875 20.856 9.49875 20.856 9.37499 20.7187C9.2932 20.3922 9.39318 20.1161 9.47753 19.7988C9.49182 19.7413 9.50611 19.6838 9.52084 19.6245C9.53525 19.5693 9.54966 19.514 9.56451 19.4571C9.57757 19.4069 9.59064 19.3566 9.60409 19.3049C9.6629 19.1549 9.71631 19.0822 9.84374 18.9844C10.009 18.9306 10.1346 18.9373 10.3032 18.9723C10.3451 18.9807 10.3871 18.9891 10.4303 18.9977C10.4953 19.0114 10.4953 19.0114 10.5615 19.0254C10.6472 19.043 10.733 19.0604 10.8188 19.0778C10.8755 19.0896 10.8755 19.0896 10.9333 19.1017C11.2251 19.1543 11.4974 19.1769 11.794 19.1682C11.8601 19.1669 11.9261 19.1657 11.9922 19.1645C12.0947 19.1625 12.1971 19.1601 12.2995 19.1568C12.3996 19.1536 12.4996 19.152 12.5997 19.1506C12.6589 19.1491 12.7181 19.1476 12.7791 19.146C12.9375 19.1719 12.9375 19.1719 13.0712 19.2608C13.2108 19.4625 13.2246 19.6396 13.246 19.8803C13.2509 19.9258 13.2558 19.9712 13.2608 20.018C13.2761 20.1627 13.2899 20.3074 13.3037 20.4521C13.3138 20.5504 13.3241 20.6487 13.3344 20.747C13.3594 20.9875 13.3832 21.2281 13.4062 21.4687C13.7598 21.4184 14.1072 21.3627 14.4521 21.2695C14.4895 21.2596 14.5269 21.2496 14.5653 21.2393C15.0387 21.1092 15.501 20.9447 15.9375 20.7187C15.9066 20.6259 15.8756 20.5331 15.8437 20.4375C15.6094 20.4671 15.4084 20.5361 15.1904 20.6221C14.8306 20.7628 14.5011 20.8915 14.1094 20.8594C13.9764 20.7865 13.9295 20.737 13.8705 20.5961C13.8577 20.5479 13.8449 20.4996 13.8318 20.4499C13.8176 20.3969 13.8034 20.3438 13.7888 20.2892C13.7676 20.206 13.7676 20.206 13.7461 20.1211C13.7239 20.039 13.7239 20.039 13.7012 19.9552C13.5607 19.4188 13.5607 19.4188 13.5937 19.1719C13.6881 19.0154 13.7629 18.958 13.9371 18.9075C13.9772 18.8952 14.0173 18.8829 14.0586 18.8703C14.1015 18.8577 14.1443 18.845 14.1885 18.832C14.9263 18.6 15.5553 18.2418 16.2034 17.8259C16.3709 17.7334 16.5145 17.7568 16.6992 17.7773C16.8126 17.8259 16.822 17.8902 16.875 18C16.9163 18.0619 16.9589 18.1229 17.0026 18.1831C17.0277 18.2177 17.0527 18.2524 17.0786 18.288C17.1052 18.3245 17.1318 18.3609 17.1592 18.3984C17.1864 18.4358 17.2135 18.4732 17.2415 18.5117C17.3223 18.6225 17.4033 18.7331 17.4844 18.8437C17.5069 18.8746 17.5295 18.9055 17.5527 18.9373C17.6107 19.0167 17.6691 19.0958 17.7275 19.1748C17.7601 19.2188 17.7927 19.2629 17.8262 19.3083C17.8984 19.4103 17.8984 19.4103 18 19.4531C18.6912 18.917 19.2844 18.2993 19.7812 17.5781C19.6362 17.4386 19.6362 17.4386 19.4531 17.3906C19.3803 17.479 19.3125 17.5678 19.2451 17.6602C19.0762 17.884 18.9046 18.1046 18.7207 18.3164C18.6814 18.3626 18.6421 18.4087 18.6017 18.4563C18.4219 18.5999 18.3227 18.6084 18.0937 18.6094C17.9998 18.5669 17.9998 18.5669 17.9268 18.4922C17.8967 18.4622 17.8667 18.4321 17.8357 18.4012C17.7778 18.3418 17.7778 18.3418 17.7187 18.2812C17.6589 18.2259 17.5989 18.1708 17.5388 18.1159C17.4737 18.0549 17.4087 17.9938 17.3437 17.9326C17.3117 17.9035 17.2796 17.8745 17.2466 17.8445C17.0986 17.7011 16.995 17.5963 16.9836 17.384C17.0192 17.183 17.0642 17.1036 17.2002 16.9541C17.2583 16.8877 17.2583 16.8877 17.3176 16.8201C17.3571 16.7763 17.3967 16.7326 17.4375 16.6875C18.2148 15.8111 18.2148 15.8111 18.6094 14.7656C18.9557 14.6502 19.2114 14.7338 19.5258 14.8845C19.5624 14.9012 19.599 14.918 19.6367 14.9352C19.7526 14.9884 19.868 15.0424 19.9834 15.0967C20.0997 15.151 20.216 15.2051 20.3326 15.2586C20.4049 15.2918 20.477 15.3255 20.5489 15.3597C20.7445 15.4572 20.7445 15.4572 20.9531 15.4219C21.0061 15.3022 21.0485 15.1887 21.0879 15.0644C21.0999 15.0274 21.1119 14.9904 21.1243 14.9522C21.3266 14.3051 21.4995 13.6182 21.5156 12.9375C21.4073 12.922 21.2991 12.9066 21.1875 12.8906C21.1795 12.9355 21.1715 12.9804 21.1633 13.0267C21.1 13.3773 21.0315 13.7266 20.9531 14.0742C20.9459 14.1077 20.9387 14.1412 20.9313 14.1756C20.856 14.5012 20.856 14.5012 20.7187 14.625C20.505 14.6787 20.3517 14.6647 20.1398 14.6096C20.0844 14.5953 20.0291 14.581 19.972 14.5662C19.9149 14.5508 19.8577 14.5354 19.7988 14.5195C19.7125 14.4975 19.7125 14.4975 19.6245 14.475C19.1408 14.3475 19.1408 14.3475 18.9844 14.2031C18.8993 13.9503 18.9682 13.7169 19.0254 13.4648C19.1571 12.8708 19.1776 12.31 19.1638 11.7021C19.1618 11.6092 19.1608 11.5163 19.1598 11.4234C19.1588 11.3687 19.1577 11.314 19.1566 11.2576C19.1746 11.083 19.1925 11.0044 19.3125 10.875C19.4503 10.8229 19.5888 10.8012 19.7344 10.7812C19.7689 10.7764 19.8033 10.7715 19.8389 10.7665C19.9441 10.7531 20.0494 10.7418 20.155 10.7311C20.2118 10.725 20.2118 10.725 20.2698 10.7189C20.3892 10.7062 20.5085 10.6939 20.6279 10.6816C20.7096 10.6731 20.7912 10.6644 20.8728 10.6558C21.0714 10.6349 21.2701 10.6142 21.4687 10.5937C21.4184 10.2402 21.3627 9.89274 21.2695 9.54785C21.2596 9.51049 21.2496 9.47314 21.2393 9.43465C21.1092 8.96128 20.9447 8.49899 20.7187 8.06249C20.6259 8.09343 20.5331 8.12437 20.4375 8.15624C20.4671 8.39059 20.5361 8.59163 20.6221 8.80957C20.7628 9.1694 20.8915 9.49891 20.8594 9.89062C20.7865 10.0236 20.737 10.0705 20.5961 10.1295C20.5479 10.1423 20.4996 10.1551 20.4499 10.1682C20.3969 10.1824 20.3438 10.1966 20.2892 10.2112C20.206 10.2324 20.206 10.2324 20.1211 10.2539C20.039 10.2761 20.039 10.2761 19.9552 10.2988C19.4188 10.4393 19.4188 10.4393 19.1719 10.4062C19.0154 10.3119 18.958 10.2371 18.9075 10.0629C18.8952 10.0228 18.8829 9.98268 18.8703 9.94134C18.8577 9.8985 18.845 9.85566 18.832 9.81152C18.6 9.07368 18.2418 8.44471 17.8259 7.79663C17.7334 7.62914 17.7568 7.4855 17.7773 7.30078C17.8259 7.18736 17.8902 7.17801 18 7.12499C18.0619 7.08372 18.1229 7.04108 18.1831 6.99737C18.235 6.95978 18.235 6.95978 18.288 6.92144C18.3245 6.89483 18.3609 6.86823 18.3984 6.84081C18.4358 6.81363 18.4732 6.78646 18.5117 6.75845C18.6225 6.67769 18.7331 6.59669 18.8437 6.51562C18.8746 6.49307 18.9055 6.47051 18.9373 6.44728C19.0167 6.38925 19.0958 6.33093 19.1748 6.27246C19.2188 6.23989 19.2629 6.20732 19.3083 6.17376C19.4103 6.10155 19.4103 6.10155 19.4531 5.99999C18.917 5.30874 18.2993 4.71555 17.5781 4.21874C17.4386 4.36374 17.4386 4.36374 17.3906 4.54687C17.479 4.61969 17.5678 4.68752 17.6602 4.75488C17.884 4.92382 18.1046 5.09544 18.3164 5.27929C18.3626 5.31857 18.4087 5.35784 18.4563 5.39831C18.5998 5.57794 18.6071 5.6776 18.6094 5.90624C18.5738 6.00347 18.5738 6.00347 18.5098 6.0791C18.4842 6.10937 18.4586 6.13964 18.4323 6.17083C17.6843 6.96351 17.6843 6.96351 17.4141 7.0166C17.1078 7.00876 16.9018 6.75642 16.6875 6.56249C15.8111 5.78516 15.8111 5.78516 14.7656 5.39062C14.6502 5.04431 14.7338 4.78859 14.8845 4.47418C14.9012 4.43759 14.918 4.40099 14.9352 4.36329C14.9884 4.24741 15.0424 4.13198 15.0967 4.0166C15.151 3.90034 15.2051 3.784 15.2586 3.66739C15.2918 3.59508 15.3255 3.52297 15.3597 3.45109C15.4572 3.25551 15.4572 3.25551 15.4219 3.04687C15.3022 2.99385 15.1887 2.95151 15.0644 2.9121C15.0274 2.9001 14.9904 2.88809 14.9522 2.87572C14.3051 2.67335 13.6182 2.50047 12.9375 2.48437Z" fill="black"/>
<path d="M11.9561 -0.0144739C12.0026 -0.0143729 12.0492 -0.0142719 12.0971 -0.0141678C12.7921 -0.0117475 13.4726 0.00364733 14.1563 0.140799C14.2261 0.154769 14.2261 0.154769 14.2972 0.169021C16.1265 0.549405 17.8357 1.28607 19.3126 2.43767C19.354 2.46922 19.3955 2.50076 19.4382 2.53326C20.169 3.10061 20.8539 3.77088 21.4219 4.50017C21.4757 4.56598 21.4757 4.56598 21.5305 4.63311C22.7979 6.21588 23.6038 8.17392 23.9063 10.172C23.9146 10.2245 23.9229 10.2769 23.9315 10.331C24.0103 10.8804 24.0168 11.4253 24.0147 11.9797C24.0146 12.0275 24.0145 12.0753 24.0144 12.1246C24.0121 12.8103 24.0005 13.483 23.8594 14.1564C23.8455 14.225 23.8455 14.225 23.8312 14.2949C23.3568 16.5628 22.3295 18.6248 20.7188 20.2971C20.6892 20.328 20.6595 20.3589 20.629 20.3907C20.2004 20.8355 19.7646 21.2452 19.2657 21.6096C19.2117 21.6498 19.1578 21.69 19.1038 21.7302C18.7199 22.0132 18.3214 22.2655 17.9063 22.5002C17.8732 22.519 17.84 22.5379 17.8058 22.5573C16.7214 23.1679 15.5415 23.578 14.3233 23.8273C14.2896 23.8342 14.2559 23.8411 14.2212 23.8483C13.5333 23.979 12.8524 24.0165 12.1535 24.015C12.0157 24.0148 11.8779 24.0159 11.7401 24.0171C11.1133 24.0192 10.5088 23.9627 9.89068 23.8596C9.81073 23.8463 9.81073 23.8463 9.72917 23.8328C7.70101 23.4685 5.77679 22.5316 4.21881 21.1877C4.18388 21.1579 4.14895 21.1282 4.11297 21.0976C3.47992 20.5439 2.88595 19.9463 2.39068 19.2658C2.35053 19.2119 2.31037 19.158 2.2702 19.1041C1.98707 18.7202 1.73473 18.3216 1.50006 17.9064C1.4812 17.8733 1.46235 17.8401 1.44293 17.806C0.83236 16.7215 0.422258 15.5416 0.172907 14.3234C0.166 14.2897 0.159093 14.256 0.151976 14.2213C0.0125766 13.4879 -0.0174287 12.7626 -0.0145926 12.0178C-0.0144915 11.97 -0.0143905 11.9223 -0.0142864 11.8732C-0.0119581 11.1884 -0.000197329 10.5165 0.140681 9.84392C0.149994 9.79823 0.159307 9.75253 0.168902 9.70545C0.643306 7.43755 1.67064 5.3756 3.28131 3.7033C3.31094 3.67239 3.34057 3.64148 3.3711 3.60964C3.79974 3.16488 4.23556 2.7552 4.73443 2.3908C4.78839 2.35058 4.84234 2.31036 4.8963 2.27013C5.28019 1.98712 5.67875 1.7348 6.09381 1.50017C6.12696 1.48132 6.16011 1.46247 6.19426 1.44305C7.27873 0.832479 8.45863 0.422377 9.67681 0.173026C9.71051 0.166119 9.74421 0.159211 9.77893 0.152095C10.5035 0.0143805 11.2203 -0.0173505 11.9561 -0.0144739ZM4.30228 3.90252C4.21806 3.98528 4.13291 4.06698 4.0476 4.14861C3.70241 4.48231 3.39255 4.8307 3.10669 5.21646C3.04868 5.29469 2.98972 5.37213 2.93066 5.44958C1.53114 7.31504 0.821037 9.64971 0.826228 11.9679C0.826253 12.011 0.826279 12.0541 0.826305 12.0984C0.833078 14.5976 1.68207 16.981 3.23443 18.9377C3.25444 18.9632 3.27445 18.9887 3.29506 19.0149C3.84908 19.7156 4.49678 20.3721 5.22012 20.8973C5.29708 20.9534 5.37283 21.0109 5.44854 21.0687C7.31277 22.4697 9.65008 23.1792 11.9678 23.174C12.0109 23.174 12.0539 23.174 12.0983 23.1739C14.4678 23.1675 16.8924 22.4093 18.7501 20.9064C18.789 20.8764 18.8279 20.8464 18.868 20.8154C19.1883 20.5661 19.4873 20.2952 19.7813 20.0158C19.8064 19.992 19.8315 19.9683 19.8574 19.9438C20.2462 19.5732 20.5869 19.1817 20.9063 18.7502C20.9264 18.7233 20.9465 18.6964 20.9673 18.6687C22.409 16.734 23.1795 14.4169 23.1739 12.006C23.1739 11.9642 23.1738 11.9224 23.1738 11.8793C23.1669 9.38995 22.3111 7.01054 20.7657 5.06267C20.7457 5.03718 20.7257 5.01168 20.705 4.9854C20.151 4.28476 19.5033 3.62828 18.78 3.10303C18.703 3.04694 18.6273 2.98946 18.5516 2.93169C16.6873 1.53069 14.35 0.821156 12.0323 0.826346C11.9892 0.826372 11.9462 0.826397 11.9018 0.826424C9.087 0.834052 6.31656 1.91977 4.30228 3.90252Z" fill="black"/>
</g>
<defs>
<clipPath id="clip0_25_27">
<rect width="24" height="24" fill="white"/>
</clipPath>
</defs>
</svg>
